<?xml version="1.0" encoding="UTF-8" standalone="no"?><svg xmlns="http://www.w3.org/2000/svg" xmlns:xlink="http://www.w3.org/1999/xlink" contentScriptType="application/ecmascript" contentStyleType="text/css" height="676px" preserveAspectRatio="none" style="width:1480px;height:676px;background:#FFFFFF;" version="1.1" viewBox="0 0 1480 676" width="1480px" zoomAndPan="magnify"><defs><filter height="300%" id="f1p7b9fjw1nru9" width="300%" x="-1" y="-1"><feGaussianBlur result="blurOut" stdDeviation="2.0"/><feColorMatrix in="blurOut" result="blurOut2" type="matrix" values="0 0 0 0 0 0 0 0 0 0 0 0 0 0 0 0 0 0 .4 0"/><feOffset dx="4.0" dy="4.0" in="blurOut2" result="blurOut3"/><feBlend in="SourceGraphic" in2="blurOut3" mode="normal"/></filter></defs><g><text fill="#000000" font-family="sans-serif" font-size="18" lengthAdjust="spacing" textLength="340" x="563.5" y="16.708">[Code] Sync Data Service Component</text><!--MD5=[58506b7fc782ff127a1a962d1768a9cc]
cluster edu.tec.ic6821.blog--><polygon fill="#FFFFFF" filter="url(#f1p7b9fjw1nru9)" points="16,26.9531,180,26.9531,187,49.25,1463,49.25,1463,669.9531,16,669.9531,16,26.9531" style="stroke:#000000;stroke-width:1.5;"/><line style="stroke:#000000;stroke-width:1.5;" x1="16" x2="187" y1="49.25" y2="49.25"/><text fill="#000000" font-family="sans-serif" font-size="14" font-weight="bold" lengthAdjust="spacing" textLength="158" x="20" y="41.9482">edu.tec.ic6821.blog</text><!--MD5=[a5f7393cdea04c07f0a0f6edc981a525]
cluster framework--><polygon fill="#FFFFFF" filter="url(#f1p7b9fjw1nru9)" points="1029,508.4531,1121,508.4531,1128,530.75,1225,530.75,1225,620.4531,1029,620.4531,1029,508.4531" style="stroke:#000000;stroke-width:1.5;"/><line style="stroke:#000000;stroke-width:1.5;" x1="1029" x2="1128" y1="530.75" y2="530.75"/><text fill="#000000" font-family="sans-serif" font-size="14" font-weight="bold" lengthAdjust="spacing" textLength="86" x="1033" y="523.4482">framework</text><!--MD5=[6b56857f0ccc5c9964bed7c34c69e9d2]
cluster posts.integration--><polygon fill="#FFFFFF" filter="url(#f1p7b9fjw1nru9)" points="860,69.9531,1004,69.9531,1011,92.25,1436,92.25,1436,392.9531,860,392.9531,860,69.9531" style="stroke:#000000;stroke-width:1.5;"/><line style="stroke:#000000;stroke-width:1.5;" x1="860" x2="1011" y1="92.25" y2="92.25"/><text fill="#000000" font-family="sans-serif" font-size="14" font-weight="bold" lengthAdjust="spacing" textLength="138" x="864" y="84.9482">posts.integration</text><!--MD5=[5ca27ef1f4d9d4d5dc5ef6d8b84cf276]
cluster posts.integration.jsonplaceholder--><polygon fill="#FFFFFF" filter="url(#f1p7b9fjw1nru9)" points="995,112.9531,1271,112.9531,1278,135.25,1281,135.25,1281,211.9531,995,211.9531,995,112.9531" style="stroke:#000000;stroke-width:1.5;"/><line style="stroke:#000000;stroke-width:1.5;" x1="995" x2="1278" y1="135.25" y2="135.25"/><text fill="#000000" font-family="sans-serif" font-size="14" font-weight="bold" lengthAdjust="spacing" textLength="270" x="999" y="127.9482">posts.integration.jsonplaceholder</text><!--MD5=[9e56d6a4770303a35a4af256b9d0dd18]
cluster posts.model--><polygon fill="#FFFFFF" filter="url(#f1p7b9fjw1nru9)" points="1249,489.4531,1353,489.4531,1360,511.75,1439,511.75,1439,639.4531,1249,639.4531,1249,489.4531" style="stroke:#000000;stroke-width:1.5;"/><line style="stroke:#000000;stroke-width:1.5;" x1="1249" x2="1360" y1="511.75" y2="511.75"/><text fill="#000000" font-family="sans-serif" font-size="14" font-weight="bold" lengthAdjust="spacing" textLength="98" x="1253" y="504.4482">posts.model</text><!--MD5=[929e54e3fdc179fdc61410e4aa9b3bff]
cluster users.model--><polygon fill="#FFFFFF" filter="url(#f1p7b9fjw1nru9)" points="841,482.9531,945,482.9531,952,505.25,1005,505.25,1005,645.9531,841,645.9531,841,482.9531" style="stroke:#000000;stroke-width:1.5;"/><line style="stroke:#000000;stroke-width:1.5;" x1="841" x2="952" y1="505.25" y2="505.25"/><text fill="#000000" font-family="sans-serif" font-size="14" font-weight="bold" lengthAdjust="spacing" textLength="98" x="845" y="497.9482">users.model</text><!--MD5=[eec1a44960847a0671eb68c07b49881a]
cluster users.integration--><polygon fill="#FFFFFF" filter="url(#f1p7b9fjw1nru9)" points="40,69.9531,184,69.9531,191,92.25,817,92.25,817,642.4531,40,642.4531,40,69.9531" style="stroke:#000000;stroke-width:1.5;"/><line style="stroke:#000000;stroke-width:1.5;" x1="40" x2="191" y1="92.25" y2="92.25"/><text fill="#000000" font-family="sans-serif" font-size="14" font-weight="bold" lengthAdjust="spacing" textLength="138" x="44" y="84.9482">users.integration</text><!--MD5=[7761b2e460adf01e8024c12d97c714f8]
cluster users.integration.jsonplaceholder--><polygon fill="#FFFFFF" filter="url(#f1p7b9fjw1nru9)" points="352,112.9531,628,112.9531,635,135.25,638,135.25,638,211.9531,352,211.9531,352,112.9531" style="stroke:#000000;stroke-width:1.5;"/><line style="stroke:#000000;stroke-width:1.5;" x1="352" x2="635" y1="135.25" y2="135.25"/><text fill="#000000" font-family="sans-serif" font-size="14" font-weight="bold" lengthAdjust="spacing" textLength="270" x="356" y="127.9482">users.integration.jsonplaceholder</text><!--MD5=[e3a8dd08c987bdaaabe057862507a37d]
class BeanMapper--><rect codeLine="6" fill="#FEFECE" filter="url(#f1p7b9fjw1nru9)" height="60.8047" id="BeanMapper" style="stroke:#A80036;stroke-width:1.5;" width="164" x="1045" y="543.4531"/><ellipse cx="1060" cy="559.4531" fill="#B4A7E5" rx="11" ry="11" style="stroke:#A80036;stroke-width:1.0;"/><path d="M1056.4219,555.2344 L1056.4219,552.9531 L1063.8125,552.9531 L1063.8125,555.2344 L1061.3438,555.2344 L1061.3438,563.6875 L1063.8125,563.6875 L1063.8125,565.9531 L1056.4219,565.9531 L1056.4219,563.6875 L1058.8906,563.6875 L1058.8906,555.2344 L1056.4219,555.2344 Z " fill="#000000"/><text fill="#000000" font-family="sans-serif" font-size="12" font-style="italic" lengthAdjust="spacing" textLength="75" x="1074" y="563.6074">BeanMapper</text><rect fill="#FFFFFF" height="15.9688" style="stroke:#000000;stroke-width:1.0;stroke-dasharray:2.0,2.0;" width="55" x="1157" y="540.4531"/><text fill="#000000" font-family="sans-serif" font-size="12" font-style="italic" lengthAdjust="spacing" textLength="53" x="1158" y="552.5918">To, From</text><line style="stroke:#A80036;stroke-width:1.5;" x1="1046" x2="1208" y1="575.4531" y2="575.4531"/><line style="stroke:#A80036;stroke-width:1.5;" x1="1046" x2="1208" y1="583.4531" y2="583.4531"/><text fill="#000000" font-family="sans-serif" font-size="11" lengthAdjust="spacing" textLength="88" x="1051" y="597.6636">map(:From): To</text><!--MD5=[c6e2f354988f52b3f670216878a580fe]
class ExternalPostDTO--><rect codeLine="12" fill="#FEFECE" filter="url(#f1p7b9fjw1nru9)" height="105.1563" id="ExternalPostDTO" style="stroke:#A80036;stroke-width:1.5;" width="132" x="876" y="271.9531"/><ellipse cx="891" cy="290.9219" fill="#ADD1B2" rx="11" ry="11" style="stroke:#A80036;stroke-width:1.0;"/><path d="M893.4688,296.7969 Q892.8906,297.1094 892.25,297.2656 Q891.6094,297.4219 890.9063,297.4219 Q888.4063,297.4219 887.0781,295.75 Q885.7656,294.0781 885.7656,290.9219 Q885.7656,287.7656 887.0781,286.0938 Q888.4063,284.4219 890.9063,284.4219 Q891.6094,284.4219 892.25,284.5781 Q892.9063,284.7344 893.4688,285.0469 L893.4688,287.8438 Q892.8438,287.2813 892.25,287.0156 Q891.6563,286.7344 891.0313,286.7344 Q889.6875,286.7344 889,287.7969 Q888.3125,288.8594 888.3125,290.9219 Q888.3125,293 889,294.0625 Q889.6875,295.1094 891.0313,295.1094 Q891.6563,295.1094 892.25,294.8438 Q892.8438,294.5781 893.4688,294 L893.4688,296.7969 Z " fill="#000000"/><text fill="#000000" font-family="sans-serif" font-size="12" font-style="italic" lengthAdjust="spacing" textLength="39" x="935.5" y="288.0918">«DTO»</text><text fill="#000000" font-family="sans-serif" font-size="12" lengthAdjust="spacing" textLength="100" x="905" y="302.0605">ExternalPostDTO</text><line style="stroke:#A80036;stroke-width:1.5;" x1="877" x2="1007" y1="309.8906" y2="309.8906"/><rect fill="none" height="6" style="stroke:#C82930;stroke-width:1.0;" width="6" x="884" y="317.8906"/><text fill="#000000" font-family="sans-serif" font-size="11" lengthAdjust="spacing" textLength="70" x="896" y="324.1011">userId: Long</text><rect fill="none" height="6" style="stroke:#C82930;stroke-width:1.0;" width="6" x="884" y="330.6953"/><text fill="#000000" font-family="sans-serif" font-size="11" lengthAdjust="spacing" textLength="45" x="896" y="336.9058">id: Long</text><rect fill="none" height="6" style="stroke:#C82930;stroke-width:1.0;" width="6" x="884" y="343.5"/><text fill="#000000" font-family="sans-serif" font-size="11" lengthAdjust="spacing" textLength="62" x="896" y="349.7104">title: String</text><rect fill="none" height="6" style="stroke:#C82930;stroke-width:1.0;" width="6" x="884" y="356.3047"/><text fill="#000000" font-family="sans-serif" font-size="11" lengthAdjust="spacing" textLength="69" x="896" y="362.5151">body: String</text><line style="stroke:#A80036;stroke-width:1.5;" x1="877" x2="1007" y1="369.1094" y2="369.1094"/><!--MD5=[0594cf6577b94c2c5f34adb7f80cf153]
class ExternalPostMapper--><rect codeLine="19" fill="#FEFECE" filter="url(#f1p7b9fjw1nru9)" height="60.8047" id="ExternalPostMapper" style="stroke:#A80036;stroke-width:1.5;" width="190" x="1043" y="293.9531"/><ellipse cx="1075.1" cy="309.9531" fill="#ADD1B2" rx="11" ry="11" style="stroke:#A80036;stroke-width:1.0;"/><path d="M1077.5688,315.8281 Q1076.9906,316.1406 1076.35,316.2969 Q1075.7094,316.4531 1075.0063,316.4531 Q1072.5063,316.4531 1071.1781,314.7813 Q1069.8656,313.1094 1069.8656,309.9531 Q1069.8656,306.7969 1071.1781,305.125 Q1072.5063,303.4531 1075.0063,303.4531 Q1075.7094,303.4531 1076.35,303.6094 Q1077.0063,303.7656 1077.5688,304.0781 L1077.5688,306.875 Q1076.9438,306.3125 1076.35,306.0469 Q1075.7563,305.7656 1075.1313,305.7656 Q1073.7875,305.7656 1073.1,306.8281 Q1072.4125,307.8906 1072.4125,309.9531 Q1072.4125,312.0313 1073.1,313.0938 Q1073.7875,314.1406 1075.1313,314.1406 Q1075.7563,314.1406 1076.35,313.875 Q1076.9438,313.6094 1077.5688,313.0313 L1077.5688,315.8281 Z " fill="#000000"/><text fill="#000000" font-family="sans-serif" font-size="12" lengthAdjust="spacing" textLength="120" x="1092.9" y="314.1074">ExternalPostMapper</text><line style="stroke:#A80036;stroke-width:1.5;" x1="1044" x2="1232" y1="325.9531" y2="325.9531"/><line style="stroke:#A80036;stroke-width:1.5;" x1="1044" x2="1232" y1="333.9531" y2="333.9531"/><ellipse cx="1054" cy="344.9531" fill="#84BE84" rx="3" ry="3" style="stroke:#038048;stroke-width:1.0;"/><text fill="#000000" font-family="sans-serif" font-size="11" lengthAdjust="spacing" textLength="164" x="1063" y="348.1636">map(:ExternalPostDTO): Post</text><!--MD5=[7c520c1e011f7a541e3cb6fb0bafce84]
class ExternalPostService--><rect codeLine="25" fill="#FEFECE" filter="url(#f1p7b9fjw1nru9)" height="60.8047" id="ExternalPostService" style="stroke:#A80036;stroke-width:1.5;" width="151" x="1268.5" y="293.9531"/><ellipse cx="1283.5" cy="309.9531" fill="#B4A7E5" rx="11" ry="11" style="stroke:#A80036;stroke-width:1.0;"/><path d="M1279.9219,305.7344 L1279.9219,303.4531 L1287.3125,303.4531 L1287.3125,305.7344 L1284.8438,305.7344 L1284.8438,314.1875 L1287.3125,314.1875 L1287.3125,316.4531 L1279.9219,316.4531 L1279.9219,314.1875 L1282.3906,314.1875 L1282.3906,305.7344 L1279.9219,305.7344 Z " fill="#000000"/><text fill="#000000" font-family="sans-serif" font-size="12" font-style="italic" lengthAdjust="spacing" textLength="119" x="1297.5" y="314.1074">ExternalPostService</text><line style="stroke:#A80036;stroke-width:1.5;" x1="1269.5" x2="1418.5" y1="325.9531" y2="325.9531"/><line style="stroke:#A80036;stroke-width:1.5;" x1="1269.5" x2="1418.5" y1="333.9531" y2="333.9531"/><ellipse cx="1279.5" cy="344.9531" fill="#84BE84" rx="3" ry="3" style="stroke:#038048;stroke-width:1.0;"/><text fill="#000000" font-family="sans-serif" font-size="11" lengthAdjust="spacing" textLength="97" x="1288.5" y="348.1636">pull(): List&lt;Post&gt;</text><!--MD5=[fb219ae427836c2f27e8554744efae4e]
class JsonPlaceholderExternalPostService--><rect codeLine="30" fill="#FEFECE" filter="url(#f1p7b9fjw1nru9)" height="48" id="JsonPlaceholderExternalPostService" style="stroke:#A80036;stroke-width:1.5;" width="245" x="1015.5" y="147.9531"/><ellipse cx="1030.5" cy="163.9531" fill="#ADD1B2" rx="11" ry="11" style="stroke:#A80036;stroke-width:1.0;"/><path d="M1032.9688,169.8281 Q1032.3906,170.1406 1031.75,170.2969 Q1031.1094,170.4531 1030.4063,170.4531 Q1027.9063,170.4531 1026.5781,168.7813 Q1025.2656,167.1094 1025.2656,163.9531 Q1025.2656,160.7969 1026.5781,159.125 Q1027.9063,157.4531 1030.4063,157.4531 Q1031.1094,157.4531 1031.75,157.6094 Q1032.4063,157.7656 1032.9688,158.0781 L1032.9688,160.875 Q1032.3438,160.3125 1031.75,160.0469 Q1031.1563,159.7656 1030.5313,159.7656 Q1029.1875,159.7656 1028.5,160.8281 Q1027.8125,161.8906 1027.8125,163.9531 Q1027.8125,166.0313 1028.5,167.0938 Q1029.1875,168.1406 1030.5313,168.1406 Q1031.1563,168.1406 1031.75,167.875 Q1032.3438,167.6094 1032.9688,167.0313 L1032.9688,169.8281 Z " fill="#000000"/><text fill="#000000" font-family="sans-serif" font-size="12" lengthAdjust="spacing" textLength="213" x="1044.5" y="168.1074">JsonPlaceholderExternalPostService</text><line style="stroke:#A80036;stroke-width:1.5;" x1="1016.5" x2="1259.5" y1="179.9531" y2="179.9531"/><line style="stroke:#A80036;stroke-width:1.5;" x1="1016.5" x2="1259.5" y1="187.9531" y2="187.9531"/><!--MD5=[9bb0bdd047fba1a3c8d48282c35b4537]
class Post--><rect codeLine="39" fill="#FEFECE" filter="url(#f1p7b9fjw1nru9)" height="99.2188" id="Post" style="stroke:#A80036;stroke-width:1.5;" width="157" x="1265.5" y="524.4531"/><ellipse cx="1327.25" cy="540.4531" fill="#ADD1B2" rx="11" ry="11" style="stroke:#A80036;stroke-width:1.0;"/><path d="M1329.7188,546.3281 Q1329.1406,546.6406 1328.5,546.7969 Q1327.8594,546.9531 1327.1563,546.9531 Q1324.6563,546.9531 1323.3281,545.2813 Q1322.0156,543.6094 1322.0156,540.4531 Q1322.0156,537.2969 1323.3281,535.625 Q1324.6563,533.9531 1327.1563,533.9531 Q1327.8594,533.9531 1328.5,534.1094 Q1329.1563,534.2656 1329.7188,534.5781 L1329.7188,537.375 Q1329.0938,536.8125 1328.5,536.5469 Q1327.9063,536.2656 1327.2813,536.2656 Q1325.9375,536.2656 1325.25,537.3281 Q1324.5625,538.3906 1324.5625,540.4531 Q1324.5625,542.5313 1325.25,543.5938 Q1325.9375,544.6406 1327.2813,544.6406 Q1327.9063,544.6406 1328.5,544.375 Q1329.0938,544.1094 1329.7188,543.5313 L1329.7188,546.3281 Z " fill="#000000"/><text fill="#000000" font-family="sans-serif" font-size="12" lengthAdjust="spacing" textLength="25" x="1347.75" y="544.6074">Post</text><line style="stroke:#A80036;stroke-width:1.5;" x1="1266.5" x2="1421.5" y1="556.4531" y2="556.4531"/><rect fill="none" height="6" style="stroke:#C82930;stroke-width:1.0;" width="6" x="1273.5" y="564.4531"/><text fill="#000000" font-family="sans-serif" font-size="11" lengthAdjust="spacing" textLength="106" x="1285.5" y="570.6636">integrationId: Long</text><rect fill="none" height="6" style="stroke:#C82930;stroke-width:1.0;" width="6" x="1273.5" y="577.2578"/><text fill="#000000" font-family="sans-serif" font-size="11" lengthAdjust="spacing" textLength="131" x="1285.5" y="583.4683">userIntegrationId: Long</text><rect fill="none" height="6" style="stroke:#C82930;stroke-width:1.0;" width="6" x="1273.5" y="590.0625"/><text fill="#000000" font-family="sans-serif" font-size="11" lengthAdjust="spacing" textLength="62" x="1285.5" y="596.2729">title: String</text><rect fill="none" height="6" style="stroke:#C82930;stroke-width:1.0;" width="6" x="1273.5" y="602.8672"/><text fill="#000000" font-family="sans-serif" font-size="11" lengthAdjust="spacing" textLength="69" x="1285.5" y="609.0776">body: String</text><line style="stroke:#A80036;stroke-width:1.5;" x1="1266.5" x2="1421.5" y1="615.6719" y2="615.6719"/><!--MD5=[3fd616f346a44cd59a91eb10b19e157c]
class User--><rect codeLine="51" fill="#FEFECE" filter="url(#f1p7b9fjw1nru9)" height="112.0234" id="User" style="stroke:#A80036;stroke-width:1.5;" width="132" x="857" y="517.9531"/><ellipse cx="905.25" cy="533.9531" fill="#ADD1B2" rx="11" ry="11" style="stroke:#A80036;stroke-width:1.0;"/><path d="M907.7188,539.8281 Q907.1406,540.1406 906.5,540.2969 Q905.8594,540.4531 905.1563,540.4531 Q902.6563,540.4531 901.3281,538.7813 Q900.0156,537.1094 900.0156,533.9531 Q900.0156,530.7969 901.3281,529.125 Q902.6563,527.4531 905.1563,527.4531 Q905.8594,527.4531 906.5,527.6094 Q907.1563,527.7656 907.7188,528.0781 L907.7188,530.875 Q907.0938,530.3125 906.5,530.0469 Q905.9063,529.7656 905.2813,529.7656 Q903.9375,529.7656 903.25,530.8281 Q902.5625,531.8906 902.5625,533.9531 Q902.5625,536.0313 903.25,537.0938 Q903.9375,538.1406 905.2813,538.1406 Q905.9063,538.1406 906.5,537.875 Q907.0938,537.6094 907.7188,537.0313 L907.7188,539.8281 Z " fill="#000000"/><text fill="#000000" font-family="sans-serif" font-size="12" lengthAdjust="spacing" textLength="27" x="925.75" y="538.1074">User</text><line style="stroke:#A80036;stroke-width:1.5;" x1="858" x2="988" y1="549.9531" y2="549.9531"/><rect fill="none" height="6" style="stroke:#C82930;stroke-width:1.0;" width="6" x="865" y="557.9531"/><text fill="#000000" font-family="sans-serif" font-size="11" lengthAdjust="spacing" textLength="106" x="877" y="564.1636">integrationId: Long</text><rect fill="none" height="6" style="stroke:#C82930;stroke-width:1.0;" width="6" x="865" y="570.7578"/><text fill="#000000" font-family="sans-serif" font-size="11" lengthAdjust="spacing" textLength="98" x="877" y="576.9683">username: String</text><rect fill="none" height="6" style="stroke:#C82930;stroke-width:1.0;" width="6" x="865" y="583.5625"/><text fill="#000000" font-family="sans-serif" font-size="11" lengthAdjust="spacing" textLength="73" x="877" y="589.7729">name: String</text><rect fill="none" height="6" style="stroke:#C82930;stroke-width:1.0;" width="6" x="865" y="596.3672"/><text fill="#000000" font-family="sans-serif" font-size="11" lengthAdjust="spacing" textLength="72" x="877" y="602.5776">email: String</text><rect fill="none" height="6" style="stroke:#C82930;stroke-width:1.0;" width="6" x="865" y="609.1719"/><text fill="#000000" font-family="sans-serif" font-size="11" lengthAdjust="spacing" textLength="86" x="877" y="615.3823">zipCode: String</text><line style="stroke:#A80036;stroke-width:1.5;" x1="858" x2="988" y1="621.9766" y2="621.9766"/><!--MD5=[2ece32691bb9329f4c2f8502622c918f]
class ExternalUserService--><rect codeLine="61" fill="#FEFECE" filter="url(#f1p7b9fjw1nru9)" height="60.8047" id="ExternalUserService" style="stroke:#A80036;stroke-width:1.5;" width="153" x="418.5" y="293.9531"/><ellipse cx="433.5" cy="309.9531" fill="#B4A7E5" rx="11" ry="11" style="stroke:#A80036;stroke-width:1.0;"/><path d="M429.9219,305.7344 L429.9219,303.4531 L437.3125,303.4531 L437.3125,305.7344 L434.8438,305.7344 L434.8438,314.1875 L437.3125,314.1875 L437.3125,316.4531 L429.9219,316.4531 L429.9219,314.1875 L432.3906,314.1875 L432.3906,305.7344 L429.9219,305.7344 Z " fill="#000000"/><text fill="#000000" font-family="sans-serif" font-size="12" font-style="italic" lengthAdjust="spacing" textLength="121" x="447.5" y="314.1074">ExternalUserService</text><line style="stroke:#A80036;stroke-width:1.5;" x1="419.5" x2="570.5" y1="325.9531" y2="325.9531"/><line style="stroke:#A80036;stroke-width:1.5;" x1="419.5" x2="570.5" y1="333.9531" y2="333.9531"/><text fill="#000000" font-family="sans-serif" font-size="11" lengthAdjust="spacing" textLength="99" x="424.5" y="348.1636">pull(): List&lt;User&gt;</text><!--MD5=[480980b38eb4b4b8a2ac86be51b11c54]
class ExternalUserDTO--><rect codeLine="73" fill="#FEFECE" filter="url(#f1p7b9fjw1nru9)" height="130.7656" id="ExternalUserDTO" style="stroke:#A80036;stroke-width:1.5;" width="134" x="249" y="258.9531"/><ellipse cx="264" cy="277.9219" fill="#ADD1B2" rx="11" ry="11" style="stroke:#A80036;stroke-width:1.0;"/><path d="M266.4688,283.7969 Q265.8906,284.1094 265.25,284.2656 Q264.6094,284.4219 263.9063,284.4219 Q261.4063,284.4219 260.0781,282.75 Q258.7656,281.0781 258.7656,277.9219 Q258.7656,274.7656 260.0781,273.0938 Q261.4063,271.4219 263.9063,271.4219 Q264.6094,271.4219 265.25,271.5781 Q265.9063,271.7344 266.4688,272.0469 L266.4688,274.8438 Q265.8438,274.2813 265.25,274.0156 Q264.6563,273.7344 264.0313,273.7344 Q262.6875,273.7344 262,274.7969 Q261.3125,275.8594 261.3125,277.9219 Q261.3125,280 262,281.0625 Q262.6875,282.1094 264.0313,282.1094 Q264.6563,282.1094 265.25,281.8438 Q265.8438,281.5781 266.4688,281 L266.4688,283.7969 Z " fill="#000000"/><text fill="#000000" font-family="sans-serif" font-size="12" font-style="italic" lengthAdjust="spacing" textLength="39" x="309.5" y="275.0918">«DTO»</text><text fill="#000000" font-family="sans-serif" font-size="12" lengthAdjust="spacing" textLength="102" x="278" y="289.0605">ExternalUserDTO</text><line style="stroke:#A80036;stroke-width:1.5;" x1="250" x2="382" y1="296.8906" y2="296.8906"/><rect fill="none" height="6" style="stroke:#C82930;stroke-width:1.0;" width="6" x="257" y="304.8906"/><text fill="#000000" font-family="sans-serif" font-size="11" lengthAdjust="spacing" textLength="45" x="269" y="311.1011">id: Long</text><rect fill="none" height="6" style="stroke:#C82930;stroke-width:1.0;" width="6" x="257" y="317.6953"/><text fill="#000000" font-family="sans-serif" font-size="11" lengthAdjust="spacing" textLength="73" x="269" y="323.9058">name: String</text><rect fill="none" height="6" style="stroke:#C82930;stroke-width:1.0;" width="6" x="257" y="330.5"/><text fill="#000000" font-family="sans-serif" font-size="11" lengthAdjust="spacing" textLength="98" x="269" y="336.7104">username: String</text><rect fill="none" height="6" style="stroke:#C82930;stroke-width:1.0;" width="6" x="257" y="343.3047"/><text fill="#000000" font-family="sans-serif" font-size="11" lengthAdjust="spacing" textLength="72" x="269" y="349.5151">email: String</text><rect fill="none" height="6" style="stroke:#C82930;stroke-width:1.0;" width="6" x="257" y="356.1094"/><text fill="#000000" font-family="sans-serif" font-size="11" lengthAdjust="spacing" textLength="76" x="269" y="362.3198">phone: String</text><rect fill="none" height="6" style="stroke:#C82930;stroke-width:1.0;" width="6" x="257" y="368.9141"/><text fill="#000000" font-family="sans-serif" font-size="11" lengthAdjust="spacing" textLength="84" x="269" y="375.1245">website: String</text><line style="stroke:#A80036;stroke-width:1.5;" x1="250" x2="382" y1="381.7188" y2="381.7188"/><!--MD5=[04954701a1891d5ad18d730a328bffd8]
class ExternalUserAddressDTO--><rect codeLine="82" fill="#FEFECE" filter="url(#f1p7b9fjw1nru9)" height="105.1563" id="ExternalUserAddressDTO" style="stroke:#A80036;stroke-width:1.5;" width="182" x="56" y="521.4531"/><ellipse cx="71" cy="540.4219" fill="#ADD1B2" rx="11" ry="11" style="stroke:#A80036;stroke-width:1.0;"/><path d="M73.4688,546.2969 Q72.8906,546.6094 72.25,546.7656 Q71.6094,546.9219 70.9063,546.9219 Q68.4063,546.9219 67.0781,545.25 Q65.7656,543.5781 65.7656,540.4219 Q65.7656,537.2656 67.0781,535.5938 Q68.4063,533.9219 70.9063,533.9219 Q71.6094,533.9219 72.25,534.0781 Q72.9063,534.2344 73.4688,534.5469 L73.4688,537.3438 Q72.8438,536.7813 72.25,536.5156 Q71.6563,536.2344 71.0313,536.2344 Q69.6875,536.2344 69,537.2969 Q68.3125,538.3594 68.3125,540.4219 Q68.3125,542.5 69,543.5625 Q69.6875,544.6094 71.0313,544.6094 Q71.6563,544.6094 72.25,544.3438 Q72.8438,544.0781 73.4688,543.5 L73.4688,546.2969 Z " fill="#000000"/><text fill="#000000" font-family="sans-serif" font-size="12" font-style="italic" lengthAdjust="spacing" textLength="39" x="140.5" y="537.5918">«DTO»</text><text fill="#000000" font-family="sans-serif" font-size="12" lengthAdjust="spacing" textLength="150" x="85" y="551.5605">ExternalUserAddressDTO</text><line style="stroke:#A80036;stroke-width:1.5;" x1="57" x2="237" y1="559.3906" y2="559.3906"/><rect fill="none" height="6" style="stroke:#C82930;stroke-width:1.0;" width="6" x="64" y="567.3906"/><text fill="#000000" font-family="sans-serif" font-size="11" lengthAdjust="spacing" textLength="74" x="76" y="573.6011">street: String</text><rect fill="none" height="6" style="stroke:#C82930;stroke-width:1.0;" width="6" x="64" y="580.1953"/><text fill="#000000" font-family="sans-serif" font-size="11" lengthAdjust="spacing" textLength="68" x="76" y="586.4058">suite: String</text><rect fill="none" height="6" style="stroke:#C82930;stroke-width:1.0;" width="6" x="64" y="593"/><text fill="#000000" font-family="sans-serif" font-size="11" lengthAdjust="spacing" textLength="61" x="76" y="599.2104">city: String</text><rect fill="none" height="6" style="stroke:#C82930;stroke-width:1.0;" width="6" x="64" y="605.8047"/><text fill="#000000" font-family="sans-serif" font-size="11" lengthAdjust="spacing" textLength="84" x="76" y="612.0151">zipcode: String</text><line style="stroke:#A80036;stroke-width:1.5;" x1="57" x2="237" y1="618.6094" y2="618.6094"/><!--MD5=[951ed4abcd2e5bc8becb01268e15b8ae]
class ExternalUserGeoDTO--><rect codeLine="91" fill="#FEFECE" filter="url(#f1p7b9fjw1nru9)" height="79.5469" id="ExternalUserGeoDTO" style="stroke:#A80036;stroke-width:1.5;" width="157" x="56.5" y="284.4531"/><ellipse cx="71.5" cy="303.4219" fill="#ADD1B2" rx="11" ry="11" style="stroke:#A80036;stroke-width:1.0;"/><path d="M73.9688,309.2969 Q73.3906,309.6094 72.75,309.7656 Q72.1094,309.9219 71.4063,309.9219 Q68.9063,309.9219 67.5781,308.25 Q66.2656,306.5781 66.2656,303.4219 Q66.2656,300.2656 67.5781,298.5938 Q68.9063,296.9219 71.4063,296.9219 Q72.1094,296.9219 72.75,297.0781 Q73.4063,297.2344 73.9688,297.5469 L73.9688,300.3438 Q73.3438,299.7813 72.75,299.5156 Q72.1563,299.2344 71.5313,299.2344 Q70.1875,299.2344 69.5,300.2969 Q68.8125,301.3594 68.8125,303.4219 Q68.8125,305.5 69.5,306.5625 Q70.1875,307.6094 71.5313,307.6094 Q72.1563,307.6094 72.75,307.3438 Q73.3438,307.0781 73.9688,306.5 L73.9688,309.2969 Z " fill="#000000"/><text fill="#000000" font-family="sans-serif" font-size="12" font-style="italic" lengthAdjust="spacing" textLength="39" x="128.5" y="300.5918">«DTO»</text><text fill="#000000" font-family="sans-serif" font-size="12" lengthAdjust="spacing" textLength="125" x="85.5" y="314.5605">ExternalUserGeoDTO</text><line style="stroke:#A80036;stroke-width:1.5;" x1="57.5" x2="212.5" y1="322.3906" y2="322.3906"/><rect fill="none" height="6" style="stroke:#C82930;stroke-width:1.0;" width="6" x="64.5" y="330.3906"/><text fill="#000000" font-family="sans-serif" font-size="11" lengthAdjust="spacing" textLength="55" x="76.5" y="336.6011">lat: String</text><rect fill="none" height="6" style="stroke:#C82930;stroke-width:1.0;" width="6" x="64.5" y="343.1953"/><text fill="#000000" font-family="sans-serif" font-size="11" lengthAdjust="spacing" textLength="58" x="76.5" y="349.4058">lng: String</text><line style="stroke:#A80036;stroke-width:1.5;" x1="57.5" x2="212.5" y1="356" y2="356"/><!--MD5=[f2c8edeacbef3042b1b5922eeaac6f6b]
class ExternalUserCompanyDTO--><rect codeLine="98" fill="#FEFECE" filter="url(#f1p7b9fjw1nru9)" height="92.3516" id="ExternalUserCompanyDTO" style="stroke:#A80036;stroke-width:1.5;" width="191" x="273.5" y="527.9531"/><ellipse cx="288.5" cy="546.9219" fill="#ADD1B2" rx="11" ry="11" style="stroke:#A80036;stroke-width:1.0;"/><path d="M290.9688,552.7969 Q290.3906,553.1094 289.75,553.2656 Q289.1094,553.4219 288.4063,553.4219 Q285.9063,553.4219 284.5781,551.75 Q283.2656,550.0781 283.2656,546.9219 Q283.2656,543.7656 284.5781,542.0938 Q285.9063,540.4219 288.4063,540.4219 Q289.1094,540.4219 289.75,540.5781 Q290.4063,540.7344 290.9688,541.0469 L290.9688,543.8438 Q290.3438,543.2813 289.75,543.0156 Q289.1563,542.7344 288.5313,542.7344 Q287.1875,542.7344 286.5,543.7969 Q285.8125,544.8594 285.8125,546.9219 Q285.8125,549 286.5,550.0625 Q287.1875,551.1094 288.5313,551.1094 Q289.1563,551.1094 289.75,550.8438 Q290.3438,550.5781 290.9688,550 L290.9688,552.7969 Z " fill="#000000"/><text fill="#000000" font-family="sans-serif" font-size="12" font-style="italic" lengthAdjust="spacing" textLength="39" x="362.5" y="544.0918">«DTO»</text><text fill="#000000" font-family="sans-serif" font-size="12" lengthAdjust="spacing" textLength="159" x="302.5" y="558.0605">ExternalUserCompanyDTO</text><line style="stroke:#A80036;stroke-width:1.5;" x1="274.5" x2="463.5" y1="565.8906" y2="565.8906"/><rect fill="none" height="6" style="stroke:#C82930;stroke-width:1.0;" width="6" x="281.5" y="573.8906"/><text fill="#000000" font-family="sans-serif" font-size="11" lengthAdjust="spacing" textLength="73" x="293.5" y="580.1011">name: String</text><rect fill="none" height="6" style="stroke:#C82930;stroke-width:1.0;" width="6" x="281.5" y="586.6953"/><text fill="#000000" font-family="sans-serif" font-size="11" lengthAdjust="spacing" textLength="110" x="293.5" y="592.9058">catchPhrase: String</text><rect fill="none" height="6" style="stroke:#C82930;stroke-width:1.0;" width="6" x="281.5" y="599.5"/><text fill="#000000" font-family="sans-serif" font-size="11" lengthAdjust="spacing" textLength="54" x="293.5" y="605.7104">bs: String</text><line style="stroke:#A80036;stroke-width:1.5;" x1="274.5" x2="463.5" y1="612.3047" y2="612.3047"/><!--MD5=[e819a152ccb98043960ba5749e62e1df]
class ExternalUserMapper--><rect codeLine="108" fill="#FEFECE" filter="url(#f1p7b9fjw1nru9)" height="60.8047" id="ExternalUserMapper" style="stroke:#A80036;stroke-width:1.5;" width="194" x="607" y="293.9531"/><ellipse cx="640" cy="309.9531" fill="#ADD1B2" rx="11" ry="11" style="stroke:#A80036;stroke-width:1.0;"/><path d="M642.4688,315.8281 Q641.8906,316.1406 641.25,316.2969 Q640.6094,316.4531 639.9063,316.4531 Q637.4063,316.4531 636.0781,314.7813 Q634.7656,313.1094 634.7656,309.9531 Q634.7656,306.7969 636.0781,305.125 Q637.4063,303.4531 639.9063,303.4531 Q640.6094,303.4531 641.25,303.6094 Q641.9063,303.7656 642.4688,304.0781 L642.4688,306.875 Q641.8438,306.3125 641.25,306.0469 Q640.6563,305.7656 640.0313,305.7656 Q638.6875,305.7656 638,306.8281 Q637.3125,307.8906 637.3125,309.9531 Q637.3125,312.0313 638,313.0938 Q638.6875,314.1406 640.0313,314.1406 Q640.6563,314.1406 641.25,313.875 Q641.8438,313.6094 642.4688,313.0313 L642.4688,315.8281 Z " fill="#000000"/><text fill="#000000" font-family="sans-serif" font-size="12" lengthAdjust="spacing" textLength="122" x="658" y="314.1074">ExternalUserMapper</text><line style="stroke:#A80036;stroke-width:1.5;" x1="608" x2="800" y1="325.9531" y2="325.9531"/><line style="stroke:#A80036;stroke-width:1.5;" x1="608" x2="800" y1="333.9531" y2="333.9531"/><ellipse cx="618" cy="344.9531" fill="#84BE84" rx="3" ry="3" style="stroke:#038048;stroke-width:1.0;"/><text fill="#000000" font-family="sans-serif" font-size="11" lengthAdjust="spacing" textLength="168" x="627" y="348.1636">map(:ExternalUserDTO): User</text><!--MD5=[3fad9f0f0c6014746e612a3b526bfedf]
class JsonPlaceholderExternalUserService--><rect codeLine="66" fill="#FEFECE" filter="url(#f1p7b9fjw1nru9)" height="48" id="JsonPlaceholderExternalUserService" style="stroke:#A80036;stroke-width:1.5;" width="247" x="371.5" y="147.9531"/><ellipse cx="386.5" cy="163.9531" fill="#ADD1B2" rx="11" ry="11" style="stroke:#A80036;stroke-width:1.0;"/><path d="M388.9688,169.8281 Q388.3906,170.1406 387.75,170.2969 Q387.1094,170.4531 386.4063,170.4531 Q383.9063,170.4531 382.5781,168.7813 Q381.2656,167.1094 381.2656,163.9531 Q381.2656,160.7969 382.5781,159.125 Q383.9063,157.4531 386.4063,157.4531 Q387.1094,157.4531 387.75,157.6094 Q388.4063,157.7656 388.9688,158.0781 L388.9688,160.875 Q388.3438,160.3125 387.75,160.0469 Q387.1563,159.7656 386.5313,159.7656 Q385.1875,159.7656 384.5,160.8281 Q383.8125,161.8906 383.8125,163.9531 Q383.8125,166.0313 384.5,167.0938 Q385.1875,168.1406 386.5313,168.1406 Q387.1563,168.1406 387.75,167.875 Q388.3438,167.6094 388.9688,167.0313 L388.9688,169.8281 Z " fill="#000000"/><text fill="#000000" font-family="sans-serif" font-size="12" lengthAdjust="spacing" textLength="215" x="400.5" y="168.1074">JsonPlaceholderExternalUserService</text><line style="stroke:#A80036;stroke-width:1.5;" x1="372.5" x2="617.5" y1="179.9531" y2="179.9531"/><line style="stroke:#A80036;stroke-width:1.5;" x1="372.5" x2="617.5" y1="187.9531" y2="187.9531"/><!--MD5=[ecde771b5421a31d86cb4c72d548bd63]
link ExternalPostMapper to BeanMapper--><path codeLine="23" d="M1136.67,355.3031 C1134.82,396.9531 1131.44,473.0131 1129.21,523.2731 " fill="none" id="ExternalPostMapper-to-BeanMapper" style="stroke:#A80036;stroke-width:1.0;stroke-dasharray:7.0,7.0;"/><polygon fill="none" points="1136.2,523.7131,1128.31,543.3831,1122.21,523.0831,1136.2,523.7131" style="stroke:#A80036;stroke-width:1.0;"/><text fill="#000000" font-family="sans-serif" font-size="13" lengthAdjust="spacing" textLength="44" x="1187.5" y="433.02">«bind»</text><text fill="#000000" font-family="sans-serif" font-size="13" lengthAdjust="spacing" textLength="151" x="1134" y="448.1528">From: ExternalPostDTO</text><text fill="#000000" font-family="sans-serif" font-size="13" lengthAdjust="spacing" textLength="52" x="1183.5" y="463.2856">To: Post</text><!--MD5=[a68a51540f36ca39d302694d302e644d]
link JsonPlaceholderExternalPostService to ExternalPostService--><path codeLine="33" d="M1169.74,196.1431 C1200.93,218.9231 1249.23,254.2131 1287.07,281.8631 " fill="none" id="JsonPlaceholderExternalPostService-to-ExternalPostService" style="stroke:#A80036;stroke-width:1.0;stroke-dasharray:7.0,7.0;"/><polygon fill="none" points="1291.34,276.3131,1303.36,293.7631,1283.08,287.6131,1291.34,276.3131" style="stroke:#A80036;stroke-width:1.0;"/><!--MD5=[6d1c1039eb68e0d38bb27c475b74418b]
link JsonPlaceholderExternalPostService to ExternalPostDTO--><path codeLine="34" d="M1107.8,196.1431 C1082.42,215.6331 1045.13,244.2631 1012.34,269.4431 " fill="none" id="JsonPlaceholderExternalPostService-to-ExternalPostDTO" style="stroke:#A80036;stroke-width:1.0;stroke-dasharray:7.0,7.0;"/><polygon fill="#A80036" points="1008.37,272.4931,1017.9429,270.1779,1012.3337,269.4453,1013.0663,263.8361,1008.37,272.4931" style="stroke:#A80036;stroke-width:1.0;"/><!--MD5=[152a3bf69ca0e404dbea63e16e57f0c7]
link JsonPlaceholderExternalPostService to ExternalPostMapper--><path codeLine="35" d="M1138,196.1431 C1138,220.8231 1138,260.1631 1138,288.5931 " fill="none" id="JsonPlaceholderExternalPostService-to-ExternalPostMapper" style="stroke:#A80036;stroke-width:1.0;"/><polygon fill="#A80036" points="1138,293.7631,1142,284.7631,1138,288.7631,1134,284.7631,1138,293.7631" style="stroke:#A80036;stroke-width:1.0;"/><!--MD5=[3297438427056909f569a4418624c980]
link ExternalPostService to Post--><path codeLine="47" d="M1344,355.3031 C1344,395.8331 1344,468.9331 1344,519.1531 " fill="none" id="ExternalPostService-to-Post" style="stroke:#A80036;stroke-width:1.0;stroke-dasharray:7.0,7.0;"/><polygon fill="#A80036" points="1344,524.2431,1348,515.2431,1344,519.2431,1340,515.2431,1344,524.2431" style="stroke:#A80036;stroke-width:1.0;"/><!--MD5=[968f1acfee8c203819a6c177121e7ccc]
link ExternalPostMapper to Post--><path codeLine="48" d="M1178.52,355.0031 C1199.59,369.7331 1226.08,387.2631 1251,400.9531 C1269.31,411.0131 1279.98,404.4531 1294,419.9531 C1318.73,447.2931 1331.25,487.0931 1337.58,519.2531 " fill="none" id="ExternalPostMapper-to-Post" style="stroke:#A80036;stroke-width:1.0;stroke-dasharray:7.0,7.0;"/><polygon fill="#A80036" points="1338.54,524.3431,1340.7994,514.7569,1337.6117,519.4301,1332.9385,516.2423,1338.54,524.3431" style="stroke:#A80036;stroke-width:1.0;"/><!--MD5=[92bb85ff9aeba6b3731b1c33a17de8f3]
link JsonPlaceholderExternalUserService to ExternalUserService--><path codeLine="70" d="M495,196.1431 C495,216.7231 495,247.5131 495,273.6531 " fill="none" id="JsonPlaceholderExternalUserService-to-ExternalUserService" style="stroke:#A80036;stroke-width:1.0;stroke-dasharray:7.0,7.0;"/><polygon fill="none" points="502,273.7631,495,293.7631,488,273.7631,502,273.7631" style="stroke:#A80036;stroke-width:1.0;"/><!--MD5=[f188bac0335f1e693b50d176cd8d4429]
link ExternalUserService to User--><path codeLine="71" d="M526.37,355.1031 C543.98,370.4831 566.99,388.5831 590,400.9531 C683.46,451.2031 725.48,421.2431 817,474.9531 C835.23,485.6531 852.96,499.9431 868.53,514.2931 " fill="none" id="ExternalUserService-to-User" style="stroke:#A80036;stroke-width:1.0;stroke-dasharray:7.0,7.0;"/><polygon fill="#A80036" points="872.44,517.9431,868.591,508.8775,868.7852,514.531,863.1317,514.7252,872.44,517.9431" style="stroke:#A80036;stroke-width:1.0;"/><!--MD5=[f778269fea651126750f19b48ff0bf9c]
link ExternalUserDTO to ExternalUserAddressDTO--><path codeLine="89" d="M271.82,390.1531 C245.03,429.3831 211.19,478.9431 185.5,516.5631 " fill="none" id="ExternalUserDTO-to-ExternalUserAddressDTO" style="stroke:#A80036;stroke-width:1.0;"/><polygon fill="#A80036" points="182.41,521.0931,190.7966,515.9293,185.236,516.9683,184.1969,511.4077,182.41,521.0931" style="stroke:#A80036;stroke-width:1.0;"/><!--MD5=[702a6827eba6f60619a34a39af02a564]
reverse link ExternalUserGeoDTO to ExternalUserAddressDTO--><path codeLine="96" d="M137.15,369.7331 C139.2,412.1631 142.31,476.1931 144.48,521.0031 " fill="none" id="ExternalUserGeoDTO-backto-ExternalUserAddressDTO" style="stroke:#A80036;stroke-width:1.0;"/><polygon fill="#A80036" points="136.9,364.6731,133.3426,373.8571,137.1433,369.6672,141.3331,373.4679,136.9,364.6731" style="stroke:#A80036;stroke-width:1.0;"/><!--MD5=[b48779e84ecbdbdffc8196172525211e]
link ExternalUserDTO to ExternalUserCompanyDTO--><path codeLine="104" d="M329.86,390.1531 C338.72,431.5531 350.05,484.4631 358.24,522.6931 " fill="none" id="ExternalUserDTO-to-ExternalUserCompanyDTO" style="stroke:#A80036;stroke-width:1.0;"/><polygon fill="#A80036" points="359.32,527.7531,361.3589,518.1176,358.2792,522.8627,353.5341,519.7829,359.32,527.7531" style="stroke:#A80036;stroke-width:1.0;"/><!--MD5=[6483ea68e4ff97821d886c75b4016e52]
link JsonPlaceholderExternalUserService to ExternalUserDTO--><path codeLine="106" d="M467.42,196.1431 C446.02,214.1331 415.35,239.9231 387.2,263.5931 " fill="none" id="JsonPlaceholderExternalUserService-to-ExternalUserDTO" style="stroke:#A80036;stroke-width:1.0;stroke-dasharray:7.0,7.0;"/><polygon fill="#A80036" points="383.06,267.0731,392.5189,264.329,386.8823,263.8498,387.3616,258.2133,383.06,267.0731" style="stroke:#A80036;stroke-width:1.0;"/><!--MD5=[0dd107a921c252c71ecf234b3bf408fd]
link ExternalUserMapper to BeanMapper--><path codeLine="112" d="M749.83,355.1531 C801.08,387.1131 887.47,437.3331 968,466.9531 C983.79,472.7631 989.81,467.7131 1005,474.9531 C1033.61,488.5931 1061.49,510.1631 1083.35,529.5931 " fill="none" id="ExternalUserMapper-to-BeanMapper" style="stroke:#A80036;stroke-width:1.0;stroke-dasharray:7.0,7.0;"/><polygon fill="none" points="1088.18,524.5131,1098.14,543.2231,1078.69,534.8131,1088.18,524.5131" style="stroke:#A80036;stroke-width:1.0;"/><text fill="#000000" font-family="sans-serif" font-size="13" lengthAdjust="spacing" textLength="44" x="1023.5" y="433.02">«bind»</text><text fill="#000000" font-family="sans-serif" font-size="13" lengthAdjust="spacing" textLength="153" x="969" y="448.1528">From: ExternalUserDTO</text><text fill="#000000" font-family="sans-serif" font-size="13" lengthAdjust="spacing" textLength="54" x="1018.5" y="463.2856">To: User</text><!--MD5=[51b563c0aa01f540d534a7335b0495f6]
link JsonPlaceholderExternalUserService to ExternalUserMapper--><path codeLine="113" d="M527.2,196.1431 C562.33,221.4331 618.85,262.1331 658.5,290.6931 " fill="none" id="JsonPlaceholderExternalUserService-to-ExternalUserMapper" style="stroke:#A80036;stroke-width:1.0;"/><polygon fill="#A80036" points="662.77,293.7631,657.7939,285.2638,658.7091,290.8461,653.1267,291.7613,662.77,293.7631" style="stroke:#A80036;stroke-width:1.0;"/><!--MD5=[61defa11fce46b0c2811ab58ee3a4897]
@startuml

title [Code] Sync Data Service Component

package edu.tec.ic6821.blog {
    package framework {
        interface BeanMapper<To, From> {
            map(:From): To
        }
    }

    package posts.integration {
        class ExternalPostDTO <<DTO>> {
            - userId: Long
            - id: Long
            - title: String
            - body: String
        }

        class ExternalPostMapper {
            + map(:ExternalPostDTO): Post
        }

        ExternalPostMapper ..|> BeanMapper :<<bind>>\nFrom: ExternalPostDTO\nTo: Post

        interface ExternalPostService {
            + pull(): List<Post>
        }

        package posts.integration.jsonplaceholder {
            class JsonPlaceholderExternalPostService {}
        }

        JsonPlaceholderExternalPostService ..|> ExternalPostService
        JsonPlaceholderExternalPostService ..> ExternalPostDTO
        JsonPlaceholderExternalPostService - -> ExternalPostMapper
    }

    package posts.model {
        class Post {
            - integrationId: Long
            - userIntegrationId: Long
            - title: String
            - body: String
        }
    }

    ExternalPostService ..> Post
    ExternalPostMapper ..> Post

    package users.model {
        class User {
            - integrationId: Long
            - username: String
            - name: String
            - email: String
            - zipCode: String
        }
    }

    package users.integration {
        interface ExternalUserService {
            pull(): List<User>
        }

        package users.integration.jsonplaceholder {
            class JsonPlaceholderExternalUserService {
            }
        }

        JsonPlaceholderExternalUserService ..|> ExternalUserService
        ExternalUserService ..> User

        class ExternalUserDTO <<DTO>> {
            - id: Long
            - name: String
            - username: String
            - email: String
            - phone: String
            - website: String
        }

        class ExternalUserAddressDTO <<DTO>> {
            - street: String
            - suite: String
            - city: String
            - zipcode: String
        }

        ExternalUserDTO - -> ExternalUserAddressDTO

        class ExternalUserGeoDTO <<DTO>> {
            - lat: String
            - lng: String
        }

        ExternalUserGeoDTO <- - ExternalUserAddressDTO

        class ExternalUserCompanyDTO <<DTO>> {
            - name: String
            - catchPhrase: String
            - bs: String
        }

        ExternalUserDTO - -> ExternalUserCompanyDTO

        JsonPlaceholderExternalUserService ..> ExternalUserDTO

        class ExternalUserMapper {
            + map(:ExternalUserDTO): User
        }

        ExternalUserMapper ..|> BeanMapper :<<bind>>\nFrom: ExternalUserDTO\nTo: User
        JsonPlaceholderExternalUserService - -> ExternalUserMapper
    }

}

@enduml

PlantUML version 1.2021.7(Sun May 23 06:40:07 CST 2021)
(GPL source distribution)
Java Runtime: OpenJDK Runtime Environment
JVM: OpenJDK 64-Bit Server VM
Default Encoding: UTF-8
Language: en
Country: US
--></g></svg>